<svg width="32" height="32" viewBox="0 0 32 32" fill="none" xmlns="http://www.w3.org/2000/svg">
<path d="M18.6667 28H13.3333M24 10.6667C24 8.54496 23.1572 6.51012 21.6569 5.00983C20.1566 3.50954 18.1217 2.66669 16 2.66669C13.8783 2.66669 11.8434 3.50954 10.3432 5.00983C8.84286 6.51012 8 8.54496 8 10.6667C8 14.7869 6.96063 17.608 5.79956 19.4739C4.82017 21.0479 4.33048 21.8348 4.34844 22.0544C4.36832 22.2975 4.41982 22.3902 4.61571 22.5355C4.79262 22.6667 5.59013 22.6667 7.18514 22.6667H24.8149C26.4099 22.6667 27.2074 22.6667 27.3843 22.5355C27.5802 22.3902 27.6317 22.2975 27.6516 22.0544C27.6695 21.8348 27.1798 21.0479 26.2005 19.4739C25.0394 17.608 24 14.7869 24 10.6667Z" stroke="black" stroke-width="2" stroke-linecap="round" stroke-linejoin="round"/>
</svg>
